<?xml version="1.0" encoding="iso-8859-1"?>
<!-- Uploaded to: SVG Repo, www.svgrepo.com, Generator: SVG Repo Mixer Tools -->
<svg height="800px" width="800px" version="1.1" id="Layer_1" xmlns="http://www.w3.org/2000/svg" xmlns:xlink="http://www.w3.org/1999/xlink" 
	 viewBox="0 0 502.001 502.001" xml:space="preserve">
<g>
	<g>
		<path style="fill:#C69C6D;" d="M492,52.789L449.211,10l-26.332,26.332l0,0c6.362,6.362,6.362,16.678,0,23.04L239.2,243.05
			c-25.964,25.964-56.739,46.619-90.604,60.81l-17.137,7.181c-11.873,4.975-22.662,12.216-31.764,21.319l-78.788,78.788
			c-14.543,14.543-14.543,38.121,0,52.664l17.28,17.28c14.543,14.543,38.121,14.543,52.664,0l78.788-78.788
			c9.103-9.103,16.344-19.892,21.319-31.765l7.181-17.136c14.191-33.865,34.846-64.64,60.81-90.604L442.628,79.121
			c6.362-6.362,16.678-6.362,23.04,0l0,0L492,52.789z"/>
		<path d="M64.519,502c-12.618,0-24.48-4.914-33.402-13.835l-17.281-17.281C4.914,461.961,0,450.098,0,437.481
			C0,424.862,4.914,413,13.836,404.077l78.788-78.788c10.07-10.07,21.836-17.967,34.971-23.471l17.137-7.181
			c32.826-13.756,62.231-33.491,87.397-58.658L415.808,52.301c2.453-2.454,2.453-6.445,0-8.898
			c-1.875-1.875-2.929-4.419-2.929-7.071s1.054-5.196,2.929-7.071L442.14,2.928c3.905-3.904,10.237-3.904,14.143,0l42.789,42.789
			c3.905,3.905,3.905,10.237,0,14.143L472.74,86.192c-1.875,1.875-4.419,2.929-7.071,2.929s-5.196-1.054-7.071-2.929
			c-2.453-2.452-6.444-2.452-8.898,0L266.021,269.871c-25.167,25.167-44.902,54.571-58.658,87.397l-7.181,17.136
			c-5.505,13.135-13.401,24.901-23.471,34.971l-78.788,78.788C89,497.086,77.137,502,64.519,502z M435.635,37.718
			c1.322,3.168,2.016,6.598,2.016,10.134c0,7.023-2.734,13.625-7.7,18.591l-183.68,183.679
			c-27.014,27.013-58.576,48.196-93.811,62.962l-17.137,7.181c-10.726,4.495-20.334,10.943-28.558,19.167L27.977,418.22
			C22.833,423.364,20,430.205,20,437.481s2.833,14.116,7.978,19.26l17.281,17.281c5.145,5.145,11.984,7.978,19.26,7.978
			s14.116-2.833,19.261-7.979l78.788-78.788c8.223-8.223,14.672-17.832,19.167-28.559l7.18-17.136
			c14.766-35.235,35.949-66.797,62.962-93.811l183.68-183.678c4.966-4.966,11.568-7.7,18.591-7.7c3.536,0,6.966,0.693,10.134,2.016
			l13.576-13.576l-28.647-28.647L435.635,37.718z"/>
	</g>
	<g>
		<path d="M106,380.5c-2.559,0-5.119-0.976-7.071-2.929c-3.905-3.905-3.905-10.237,0-14.143l9.5-9.5
			c3.905-3.905,10.237-3.905,14.143,0c3.905,3.905,3.905,10.237,0,14.143l-9.5,9.5C111.119,379.524,108.559,380.5,106,380.5z"/>
	</g>
	<g>
		<path d="M41,445.5c-2.559,0-5.119-0.976-7.071-2.929c-3.905-3.905-3.905-10.237,0-14.143l45-45c3.905-3.905,10.237-3.905,14.143,0
			c3.905,3.905,3.905,10.237,0,14.143l-45,45C46.119,444.524,43.559,445.5,41,445.5z"/>
	</g>
</g>
</svg>